<svg width="200" height="200" viewBox="0 0 200 200" xmlns="http://www.w3.org/2000/svg">
  <!-- Professional Physical AI Logo - Humanoid + Circuit Design -->
  <defs>
    <linearGradient id="primaryGradient" x1="0%" y1="0%" x2="100%" y2="100%">
      <stop offset="0%" style="stop-color:#1e3a8a;stop-opacity:1" />
      <stop offset="100%" style="stop-color:#3b82f6;stop-opacity:1" />
    </linearGradient>
    <linearGradient id="accentGradient" x1="0%" y1="0%" x2="100%" y2="100%">
      <stop offset="0%" style="stop-color:#dc2626;stop-opacity:1" />
      <stop offset="100%" style="stop-color:#ef4444;stop-opacity:1" />
    </linearGradient>
  </defs>

  <!-- Outer circle border -->
  <circle cx="100" cy="100" r="95" fill="none" stroke="url(#primaryGradient)" stroke-width="3"/>

  <!-- Humanoid robot silhouette -->
  <g id="robot" fill="url(#primaryGradient)">
    <!-- Head -->
    <rect x="85" y="30" width="30" height="30" rx="5"/>
    <!-- Eyes -->
    <circle cx="92" cy="42" r="3" fill="url(#accentGradient)"/>
    <circle cx="108" cy="42" r="3" fill="url(#accentGradient)"/>
    <!-- Antenna -->
    <line x1="100" y1="30" x2="100" y2="20" stroke="url(#accentGradient)" stroke-width="2"/>
    <circle cx="100" cy="17" r="3" fill="url(#accentGradient)"/>

    <!-- Torso -->
    <rect x="80" y="65" width="40" height="50" rx="8"/>

    <!-- Arms -->
    <rect x="60" y="70" width="15" height="35" rx="7"/>
    <rect x="125" y="70" width="15" height="35" rx="7"/>

    <!-- Legs -->
    <rect x="85" y="120" width="12" height="45" rx="6"/>
    <rect x="103" y="120" width="12" height="45" rx="6"/>

    <!-- Joints (accent dots) -->
    <circle cx="67.5" cy="87" r="4" fill="url(#accentGradient)"/>
    <circle cx="132.5" cy="87" r="4" fill="url(#accentGradient)"/>
    <circle cx="91" cy="120" r="4" fill="url(#accentGradient)"/>
    <circle cx="109" cy="120" r="4" fill="url(#accentGradient)"/>
  </g>

  <!-- Circuit board pattern elements -->
  <g id="circuits" stroke="url(#primaryGradient)" stroke-width="2" fill="none" opacity="0.4">
    <!-- Left side circuits -->
    <path d="M 25 70 L 45 70 L 45 90 L 30 90"/>
    <circle cx="25" cy="70" r="3" fill="url(#accentGradient)"/>
    <circle cx="30" cy="90" r="3" fill="url(#accentGradient)"/>

    <!-- Right side circuits -->
    <path d="M 175 70 L 155 70 L 155 90 L 170 90"/>
    <circle cx="175" cy="70" r="3" fill="url(#accentGradient)"/>
    <circle cx="170" cy="90" r="3" fill="url(#accentGradient)"/>

    <!-- Bottom circuits -->
    <path d="M 100 175 L 100 160 L 120 160"/>
    <circle cx="100" cy="175" r="3" fill="url(#accentGradient)"/>
    <circle cx="120" cy="160" r="3" fill="url(#accentGradient)"/>

    <path d="M 100 175 L 100 160 L 80 160"/>
    <circle cx="80" cy="160" r="3" fill="url(#accentGradient)"/>
  </g>

  <!-- AI neural network nodes -->
  <g id="neural-nodes" fill="url(#accentGradient)" opacity="0.6">
    <circle cx="40" cy="130" r="3"/>
    <circle cx="160" cy="130" r="3"/>
    <circle cx="60" cy="40" r="3"/>
    <circle cx="140" cy="40" r="3"/>

    <!-- Connection lines -->
    <line x1="40" y1="130" x2="60" y2="40" stroke="url(#primaryGradient)" stroke-width="1" opacity="0.3"/>
    <line x1="160" y1="130" x2="140" y2="40" stroke="url(#primaryGradient)" stroke-width="1" opacity="0.3"/>
  </g>
</svg>
